<svg width="16" height="20" viewBox="0 0 16 20" fill="none" xmlns="http://www.w3.org/2000/svg">
<path fill-rule="evenodd" clip-rule="evenodd" d="M7.99943 2.85714C6.42148 2.85714 5.14229 4.13633 5.14229 5.71429V7.14286H10.8566V5.71429C10.8566 4.13633 9.57739 2.85714 7.99943 2.85714ZM2.28515 5.71429V7.14286C1.10171 7.14289 0.142334 8.10226 0.142334 9.28571V17.8571C0.142334 19.0406 1.10172 20 2.28519 20H13.7137C14.8973 20 15.8566 19.0406 15.8566 17.8571V9.28571C15.8566 8.10224 14.8973 7.14286 13.7137 7.14286V5.71429C13.7137 2.55837 11.1553 0 7.99943 0C4.84352 0 2.28515 2.55837 2.28515 5.71429ZM7.99948 15.3571C8.98571 15.3571 9.78519 14.5577 9.78519 13.5714C9.78519 12.5852 8.98571 11.7857 7.99948 11.7857C7.01325 11.7857 6.21376 12.5852 6.21376 13.5714C6.21376 14.5577 7.01325 15.3571 7.99948 15.3571Z" fill="#4A4A4A"/>
</svg>
