<svg width="21" height="20" viewBox="0 0 21 20" fill="none" xmlns="http://www.w3.org/2000/svg">
<path fill-rule="evenodd" clip-rule="evenodd" d="M14.1365 7.27284C14.1365 8.23726 13.7534 9.16219 13.0714 9.84414C12.3895 10.5261 11.4646 10.9092 10.5001 10.9092C9.53571 10.9092 8.61079 10.5261 7.92884 9.84414C7.24689 9.16219 6.86377 8.23726 6.86377 7.27284C6.86377 6.30841 7.24689 5.38349 7.92884 4.70154C8.61079 4.01959 9.53571 3.63647 10.5001 3.63647C11.4646 3.63647 12.3895 4.01959 13.0714 4.70154C13.7534 5.38349 14.1365 6.30841 14.1365 7.27284ZM12.3183 7.27284C12.3183 7.75505 12.1268 8.21751 11.7858 8.55849C11.4448 8.89946 10.9823 9.09102 10.5001 9.09102C10.0179 9.09102 9.55546 8.89946 9.21448 8.55849C8.87351 8.21751 8.68195 7.75505 8.68195 7.27284C8.68195 6.79063 8.87351 6.32816 9.21448 5.98719C9.55546 5.64621 10.0179 5.45466 10.5001 5.45466C10.9823 5.45466 11.4448 5.64621 11.7858 5.98719C12.1268 6.32816 12.3183 6.79063 12.3183 7.27284Z" fill="black"/>
<path fill-rule="evenodd" clip-rule="evenodd" d="M10.5 0C4.97727 0 0.5 4.47727 0.5 10C0.5 15.5227 4.97727 20 10.5 20C16.0227 20 20.5 15.5227 20.5 10C20.5 4.47727 16.0227 0 10.5 0ZM2.31818 10C2.31818 11.9 2.96636 13.6491 4.05273 15.0382C4.81586 14.0365 5.80014 13.2247 6.92876 12.6661C8.05739 12.1076 9.29982 11.8174 10.5591 11.8182C11.8022 11.8167 13.0292 12.0992 14.1465 12.644C15.2638 13.1888 16.242 13.9815 17.0064 14.9618C17.794 13.9287 18.3244 12.7229 18.5535 11.4442C18.7827 10.1654 18.704 8.85049 18.3241 7.60817C17.9441 6.36585 17.2738 5.23186 16.3686 4.30003C15.4634 3.36821 14.3493 2.66533 13.1185 2.24955C11.8877 1.83378 10.5756 1.71707 9.29078 1.90907C8.00593 2.10107 6.78526 2.59627 5.72979 3.35369C4.67432 4.11111 3.81437 5.10897 3.22112 6.26472C2.62786 7.42047 2.31835 8.70088 2.31818 10ZM10.5 18.1818C8.62173 18.1849 6.80013 17.5387 5.34364 16.3527C5.92983 15.5133 6.71018 14.8279 7.61825 14.355C8.52633 13.882 9.53523 13.6355 10.5591 13.6364C11.5702 13.6355 12.5668 13.8759 13.4663 14.3376C14.3659 14.7992 15.1422 15.4689 15.7309 16.2909C14.2632 17.5155 12.4115 18.1848 10.5 18.1818Z" fill="black"/>
</svg>
